PathFileType	4	(X/Y/Z)	C:/Users/opensim2020/Desktop/walking_exp_matlab/subject03_walking08_straight_03.trc	
DataRate	CameraRate	NumFrames	NumMarkers	Units	OrigDataRate	OrigDataStartFrame	OrigNumFrames	
100.00	100.00	4	51	mm	100.00	2618	299	
Frame#	Time	LFHD			RFHD			LBHD			RBHD			C7			T10			CLAV			STRN			RBAK			LSHO			LUPA			LELB			LFRM			LWRA			LWRB			LFIN			RSHO			RUPA			RELB			RFRM			RWRA			RWRB			RFIN			LASI			RASI			LPSI			RPSI			LTHI			LKNE			LTIB			LANK			LHEE			LTOE			RTHI			RKNE			RTIB			RANK			RHEE			RTOE			*39			*40			*41			*42			*43			*44			*45			*46			*47			*48			*49			*50			
		X1	Y1	Z1	X2	Y2	Z2	X3	Y3	Z3	X4	Y4	Z4	X5	Y5	Z5	X6	Y6	Z6	X7	Y7	Z7	X8	Y8	Z8	X9	Y9	Z9	X10	Y10	Z10	X11	Y11	Z11	X12	Y12	Z12	X13	Y13	Z13	X14	Y14	Z14	X15	Y15	Z15	X16	Y16	Z16	X17	Y17	Z17	X18	Y18	Z18	X19	Y19	Z19	X20	Y20	Z20	X21	Y21	Z21	X22	Y22	Z22	X23	Y23	Z23	X24	Y24	Z24	X25	Y25	Z25	X26	Y26	Z26	X27	Y27	Z27	X28	Y28	Z28	X29	Y29	Z29	X30	Y30	Z30	X31	Y31	Z31	X32	Y32	Z32	X33	Y33	Z33	X34	Y34	Z34	X35	Y35	Z35	X36	Y36	Z36	X37	Y37	Z37	X38	Y38	Z38	X39	Y39	Z39	X40	Y40	Z40	X41	Y41	Z41	X42	Y42	Z42	X43	Y43	Z43	X44	Y44	Z44	X45	Y45	Z45	X46	Y46	Z46	X47	Y47	Z47	X48	Y48	Z48	X49	Y49	Z49	X50	Y50	Z50	X51	Y51	Z51	

187	1.860	-1089.99622	449.62543	1601.13599	-959.14697	430.24377	1611.49219	-1104.13416	316.69440	1580.60510	-974.34143	303.06622	1589.76160	-1045.84961	259.50412	1415.47742	-1040.75977	228.13165	1098.70569	-1031.32544	378.56882	1337.43457	-1032.77881	424.88211	1174.24060	-954.33734	197.03729	1236.00549	-1189.64209	349.33331	1373.66394	-1263.87439	390.97949	1186.57947	-1276.70520	438.85083	1074.54858	-1269.35266	518.68768	972.67786	-1231.95789	588.50830	879.54083	-1283.25549	568.48578	870.81921	-1270.40820	623.37622	808.66895	-877.03198	315.74756	1361.65710	-801.55884	317.62012	1139.62512	-786.49561	338.84378	1028.97009	-783.45764	365.78613	894.86157	-816.57770	406.25427	802.82892	-774.94800	372.71527	795.11438	-781.09052	403.43680	728.29498	-1151.50781	398.12280	937.11749	-913.08862	392.49008	936.93073	-1103.81116	235.29677	961.69293	-954.56482	232.49548	962.85175	-1179.44214	328.71616	635.69391	-1134.21484	317.20178	459.31296	-1132.91650	249.92580	274.24948	-1084.78149	211.22609	68.35442	-1049.46448	167.83585	35.88783	-1057.56189	362.15335	29.37164	-857.90424	407.75983	647.81824	-884.81348	488.55063	485.83356	-882.46161	444.97534	299.80420	-926.42041	409.50696	86.48203	-980.72150	364.93454	56.11613	-937.00299	542.67389	40.89101	-1052.92126	372.94281	1676.23230																																	 
188	1.870	-1089.23608	456.77740	1600.74951	-958.36792	437.23401	1610.80286	-1103.59631	323.93124	1579.96094	-973.80811	310.07715	1588.88525	-1045.52612	266.77655	1414.83105	-1040.12354	235.05180	1098.17236	-1031.09180	385.85156	1336.73792	-1032.71887	431.88147	1173.46960	-954.07135	204.17300	1235.42102	-1189.29761	356.61282	1373.13501	-1263.89917	398.82315	1186.50085	-1276.76196	447.11914	1074.76843	-1268.88416	528.52911	974.32196	-1231.00269	600.02637	882.79449	-1281.93701	580.17645	873.28619	-1268.95764	636.36969	812.47791	-876.68494	323.04749	1360.79834	-801.42340	323.63702	1138.76660	-786.34448	344.38397	1028.02185	-783.23230	370.94379	893.81812	-816.33673	411.38895	801.73090	-775.00085	377.53702	794.00116	-781.02075	408.12454	727.19360	-1151.47400	404.76581	936.52509	-912.88916	399.90759	936.08942	-1103.09729	242.01482	961.08038	-953.86224	239.72954	962.02216	-1179.15222	333.40536	635.38269	-1134.17737	320.24380	459.03693	-1132.87903	251.53453	274.52295	-1084.73816	211.45563	68.79481	-1049.35474	167.86156	36.42356	-1057.52917	362.10043	29.22559	-857.93158	414.22379	646.56580	-885.76917	496.18851	485.13043	-882.51129	459.87793	298.06357	-925.66656	433.67502	83.08811	-979.83118	390.29535	50.90669	-937.05951	568.54980	42.12597	-1052.21265	379.94208	1675.66162																																	 
189	1.880	-1088.36890	463.94714	1600.26648	-957.79065	444.31982	1610.16797	-1103.04944	331.20673	1579.29150	-973.22620	317.08405	1587.93396	-1045.08081	274.08618	1414.15259	-1039.55542	242.01091	1097.55322	-1030.84180	393.17874	1336.04285	-1032.54077	438.94473	1172.68323	-953.70654	211.38470	1234.82739	-1188.92102	363.86102	1372.53784	-1263.68494	406.47772	1186.21094	-1276.68042	455.27582	1074.89990	-1268.30811	538.08521	975.77594	-1229.71619	610.85327	885.53906	-1280.90027	591.47601	875.64502	-1267.35229	648.91522	816.16626	-876.34198	330.31592	1360.04651	-801.33411	329.81665	1137.91321	-786.19086	350.04401	1027.06592	-783.22742	376.17355	892.76642	-816.13379	416.63126	800.61951	-775.07245	382.38867	792.91406	-781.00061	412.82330	725.97180	-1151.37207	411.37488	935.90564	-912.43115	407.31378	935.09961	-1102.45483	248.81129	960.38220	-953.21747	247.01175	961.10529	-1178.83936	338.16632	635.09357	-1134.18958	323.36157	458.82983	-1132.76404	253.07770	274.77933	-1084.70764	211.55603	69.15767	-1049.14307	167.94614	37.01290	-1057.53491	362.04971	29.15122	-857.79456	420.52295	645.26270	-886.69513	503.56955	484.29581	-882.56757	474.26624	296.53290	-925.00800	457.22580	80.35845	-978.95532	414.98160	46.72708	-937.06989	593.62482	43.55675	-1051.33691	386.94565	1675.00708																																	 
190	1.890	-1087.61475	471.25467	1599.85315	-956.73956	451.25525	1609.40186	-1102.38843	338.50281	1578.59937	-972.64630	324.18201	1587.02002	-1044.63037	281.42026	1413.42664	-1038.94177	249.08678	1096.92212	-1030.49548	400.52267	1335.26965	-1032.41003	446.08716	1171.84290	-953.21130	218.70509	1234.24097	-1188.51477	371.13647	1372.03296	-1263.61462	414.16879	1185.96289	-1276.60071	463.11389	1074.80200	-1267.67651	547.24878	977.04340	-1228.44617	621.34918	888.20776	-1279.63440	602.32294	877.74097	-1265.66614	660.89545	819.54706	-875.93225	337.80728	1359.18848	-801.18719	336.24442	1137.03577	-786.04822	355.90710	1026.10718	-783.09955	381.36279	891.68317	-815.95801	421.82883	799.49408	-775.18042	387.29495	791.80273	-780.99518	417.43900	724.74951	-1151.17761	418.14044	935.23474	-912.19434	414.71387	934.17700	-1101.77417	255.64830	959.69946	-952.53320	254.32228	960.24286	-1178.54785	342.97488	634.79895	-1134.12268	326.57672	458.67398	-1132.69495	254.69589	275.11115	-1084.57251	211.82866	69.59114	-1049.06104	168.19902	37.63068	-1057.55920	362.14090	29.14057	-857.51392	427.25339	643.90643	-887.52295	510.65741	483.29700	-882.65894	487.82568	295.10422	-924.35553	480.04590	78.18845	-978.27991	438.80676	43.54692	-936.91302	617.81635	45.15695	-1050.53003	393.97006	1674.39697																																	 
